PathFileType	4	(X/Y/Z)	Run_400 02
DataRate	CameraRate	NumFrames	NumMarkers	Units	OrigDataRate	OrigDataStartFrame	OrigNumFrames
100	100	6	45	mm	100	473	137
Frame#	Time	LASI			RASI			LPSI			RPSI			RTH1			RTH2			RTH3			LTH1			LTH2			LTH3			RTB1			RTB2			RTB3			RLMAL			RMMAL			LTB1			LTB2			LTB3			RCAL			RTOE			RMT5			LCAL			LTOE			LMT5			LACR			RACR			CLAV			C7			LPSH			RUA1			RUA2			RUA3			RLEL			RMEL			LUA1			LUA2			LUA3			LLEL			LMEL			RFAsuperior			RFAradius			RFAulna			LFAsuperior			LFAradius			LFAulna		
		X1	Y1	Z1	X2	Y2	Z2	X3	Y3	Z3	X4	Y4	Z4	X5	Y5	Z5	X6	Y6	Z6	X7	Y7	Z7	X8	Y8	Z8	X9	Y9	Z9	X10	Y10	Z10	X11	Y11	Z11	X12	Y12	Z12	X13	Y13	Z13	X14	Y14	Z14	X15	Y15	Z15	X16	Y16	Z16	X17	Y17	Z17	X18	Y18	Z18	X19	Y19	Z19	X20	Y20	Z20	X21	Y21	Z21	X22	Y22	Z22	X23	Y23	Z23	X24	Y24	Z24	X25	Y25	Z25	X26	Y26	Z26	X27	Y27	Z27	X28	Y28	Z28	X29	Y29	Z29	X30	Y30	Z30	X31	Y31	Z31	X32	Y32	Z32	X33	Y33	Z33	X34	Y34	Z34	X35	Y35	Z35	X36	Y36	Z36	X37	Y37	Z37	X38	Y38	Z38	X39	Y39	Z39	X40	Y40	Z40	X41	Y41	Z41	X42	Y42	Z42	X43	Y43	Z43	X44	Y44	Z44	X45	Y45	Z45	

473	  4.730000	958.129259	1015.488702	-452.232225	951.567972	1035.508490	-220.671155	786.772524	1055.795198	-389.308185	787.830072	1061.118573	-303.706393	923.871313	783.321095	-174.235849	1016.380374	739.736379	-209.259879	982.717543	623.054029	-219.847146	870.521845	785.568590	-493.769662	957.963980	684.731765	-493.969663	920.215867	586.641076	-476.803118	1043.920402	389.286170	-289.536579	998.312772	336.080784	-246.542374	988.144274	212.911957	-300.360297	922.478969	115.810141	-284.532011	942.209827	133.648204	-365.964010	841.684166	435.577023	-447.618795	735.674498	519.073637	-462.915958	650.762773	447.803302	-431.142999	856.252676	 97.552708	-350.426919	1082.628127	 65.745034	-320.167625	1005.653991	 56.484621	-250.314373	509.600561	542.147751	-376.771129	475.794665	323.153385	-407.797691	456.405188	386.391305	-468.728775	935.087569	1533.702774	-479.147114	905.552462	1489.101646	-163.806605	989.015330	1449.959921	-295.771048	871.823265	1536.215819	-322.964523	854.831463	1496.244456	-502.226003	828.167767	1346.963691	-84.386111	746.841140	1309.495159	-117.113571	735.651628	1255.577883	-74.287596	730.498887	1188.732231	-46.856233	718.088314	1177.467923	-133.609982	864.365353	1424.518374	-574.538432	799.570624	1352.299192	-582.046793	825.132261	1315.681259	-644.040288	829.207399	1239.834005	-676.564639	777.956741	1220.494804	-602.965332	776.230313	1123.295937	-55.333676	974.070880	1112.451176	-94.564992	952.259282	1050.040397	-80.260958	887.040351	1178.024868	-625.797983	1014.296098	1219.077557	-512.019816	1022.446018	1154.591055	-535.281271	
474	  4.740000	953.630739	1006.877438	-452.144299	946.214216	1027.444664	-218.641313	782.039556	1048.488029	-389.380408	782.986650	1055.385267	-304.262167	916.616116	777.967492	-174.646017	1008.763572	734.384362	-209.064827	974.893264	618.181362	-221.017161	876.367475	779.310408	-492.160075	971.005836	683.868843	-493.751250	941.174841	584.719467	-477.652848	1026.271020	384.238210	-293.578457	977.440727	334.420990	-249.336421	959.234884	211.417227	-302.152542	886.153258	117.468701	-286.345758	907.164444	134.371194	-367.771134	870.364924	435.505387	-447.300514	763.941016	517.332139	-465.228476	679.615272	445.562570	-432.896063	818.766694	 98.880878	-351.509015	1044.859069	 64.656892	-321.582269	967.496660	 56.124355	-251.830984	535.810113	539.209306	-382.490960	506.764397	318.732117	-407.730400	487.389797	379.868406	-470.804760	933.539147	1524.778512	-480.160485	909.522195	1480.771177	-161.782166	990.946620	1441.058319	-296.469266	873.377408	1529.306593	-321.263775	852.322808	1488.158376	-501.421362	837.555060	1333.819655	-82.550998	755.450393	1294.702976	-111.092817	747.142200	1240.286957	-68.006759	746.172965	1174.011586	-40.931586	731.117932	1161.841751	-127.577509	858.471619	1416.347726	-574.097297	791.804446	1345.175805	-581.007110	814.467947	1309.956057	-644.928921	816.864572	1235.739810	-679.121387	766.988142	1215.041029	-604.878666	792.566816	1109.976812	-50.865592	988.835539	1102.294845	-95.706980	968.115104	1039.499743	-80.120282	873.993786	1170.587250	-632.311274	1005.728572	1202.385547	-521.831839	1011.442069	1138.524705	-547.547144	
475	  4.750000	949.032428	1000.676736	-452.687729	941.033942	1021.146044	-215.768696	777.879895	1043.153071	-389.880291	777.706451	1050.731853	-304.702592	908.123845	772.612157	-174.890938	999.378891	729.058665	-209.796250	963.335647	613.018379	-221.242363	882.298467	776.281173	-491.043628	984.300394	687.167621	-492.967207	962.147375	587.122159	-477.820867	1005.638174	377.842997	-294.995788	954.090115	331.019643	-249.883673	928.407288	208.768750	-302.077554	849.174573	118.191126	-286.132822	870.903731	134.642983	-367.574598	899.774589	437.886234	-446.592075	791.394931	516.150050	-466.829531	708.821868	442.631392	-434.166289	780.829342	 99.591149	-351.127690	1006.617051	 63.657771	-321.666054	929.147610	 55.623037	-251.914260	560.319908	532.933193	-387.572369	540.567759	310.954962	-408.010165	520.475780	369.786342	-473.081021	931.913094	1517.716236	-481.147935	913.893168	1474.525536	-160.653742	992.305021	1434.019548	-297.663344	874.877455	1524.486546	-320.044781	849.533858	1482.670505	-500.468073	847.603139	1323.942800	-81.844371	764.811063	1282.720787	-106.128263	759.589598	1227.844369	-62.723148	762.878050	1162.162133	-36.139203	744.763436	1148.735255	-122.309860	852.106059	1410.490942	-572.927952	783.192243	1339.996952	-578.818519	803.283695	1306.470315	-644.685218	804.357059	1233.773131	-680.288281	755.659645	1211.660046	-605.778172	810.297060	1099.503416	-47.500644	1004.404610	1095.541672	-98.116059	984.986478	1032.363993	-81.094279	860.647987	1165.578724	-637.659346	996.355203	1188.486503	-530.893214	999.496287	1125.340398	-558.760053	
476	  4.760000	945.021359	997.388230	-453.452342	936.872723	1016.608327	-213.257026	774.526926	1040.373489	-390.066471	773.035972	1047.870952	-304.404785	898.603057	767.730382	-174.582980	988.306491	721.908854	-209.899179	947.808589	606.694217	-221.197516	888.462508	775.929951	-490.624874	997.859149	694.337096	-491.940901	982.634897	593.351406	-477.298428	981.840359	370.061787	-295.079377	928.309421	325.510529	-249.738885	895.796127	204.917357	-301.797322	811.949026	118.473671	-285.216111	833.992177	134.501689	-366.778647	929.210363	442.447319	-445.382835	817.752113	515.373413	-467.908465	737.932524	439.032118	-434.867198	742.794441	 99.914500	-350.227596	968.315953	 63.029932	-320.863683	890.907659	 55.409051	-250.964415	583.302651	523.298703	-391.491365	577.125031	300.374705	-408.812022	555.345140	356.927357	-475.402148	929.797565	1513.085279	-481.902410	918.588405	1470.636255	-160.584186	993.010802	1429.159137	-299.427310	876.083517	1521.438705	-319.266214	846.197244	1479.849135	-499.142516	857.755246	1317.889452	-81.793900	774.545250	1274.274913	-102.659146	772.507388	1219.208963	-58.734007	779.373186	1153.997070	-32.702654	758.114421	1139.263522	-118.120106	845.231470	1407.497756	-570.996879	774.191182	1337.716845	-575.316110	791.949731	1305.976412	-643.080372	791.717545	1234.129861	-680.090465	744.227830	1211.183736	-605.168490	828.350360	1092.644188	-45.555985	1019.898517	1093.389944	-102.369712	1002.222786	1029.906936	-83.646884	846.987389	1163.059499	-641.363879	986.218978	1178.112349	-538.658966	986.721447	1115.688952	-568.332994	
477	  4.770000	942.035404	996.773409	-454.100260	934.173869	1013.749465	-212.145465	772.064953	1040.199169	-389.644282	769.975352	1047.315667	-303.352307	888.638889	764.086260	-173.994714	976.015189	713.416881	-208.776907	929.938315	600.171533	-220.859188	894.755395	777.673929	-490.710663	1011.312229	704.638786	-490.945474	1002.426605	602.763051	-476.566938	955.491975	362.217881	-294.454374	900.258323	319.559222	-249.542254	862.116584	201.240640	-301.663082	774.959350	119.110922	-284.539926	797.482842	134.678607	-366.267847	958.087777	448.861587	-443.557241	843.020390	514.933532	-468.632683	766.909626	434.853170	-435.122690	705.068539	100.291293	-349.810773	930.329725	 62.782118	-319.995798	852.993676	 55.485074	-249.791998	605.611379	510.360880	-394.111377	616.036471	287.605734	-410.099667	591.508411	342.043655	-477.567543	926.628188	1511.254160	-482.379301	923.391251	1469.175355	-161.227534	993.333601	1426.650547	-301.611211	876.911635	1519.963930	-318.695695	842.064426	1479.252593	-497.368266	867.375262	1315.257138	-81.846701	784.067785	1269.473718	-100.508608	785.006515	1214.539771	-56.094256	794.486295	1149.667495	-30.576098	770.336596	1134.007588	-115.082404	837.793577	1407.235920	-568.611029	765.287297	1338.584400	-570.933771	780.649066	1308.365743	-640.306927	778.744709	1236.637211	-678.719445	732.922840	1213.758678	-602.893018	845.358178	1089.712015	-45.145849	1034.116800	1096.552405	-108.564310	1018.868884	1032.761919	-88.219573	832.952103	1162.936304	-643.100513	975.364250	1171.888074	-544.828685	973.370026	1110.068124	-575.698116	
478	  4.780000	940.091747	998.116462	-454.565943	932.945974	1012.580732	-212.536533	770.536948	1042.139816	-388.943025	768.654874	1048.813170	-302.054981	878.659644	762.131736	-173.664349	962.877410	705.591551	-207.349628	911.480884	595.090097	-219.891701	900.863733	781.380595	-490.942592	1023.968964	717.317762	-490.080586	1021.272448	614.916615	-476.161909	927.297625	355.844364	-293.064172	870.152143	315.181681	-249.061270	827.854873	199.063882	-301.203509	738.026393	120.598971	-284.160619	761.534313	135.741988	-366.054919	986.029941	456.918293	-441.419822	867.171593	514.839066	-469.024809	795.926918	430.255665	-435.216475	667.501196	101.202702	-350.199802	892.330768	 62.716866	-319.471822	815.002091	 55.655181	-248.989270	628.186364	494.291503	-395.623112	656.787394	273.145349	-411.618407	628.616430	325.581808	-479.435979	922.168390	1512.120257	-482.658949	928.126181	1470.011674	-162.083470	993.654712	1426.558405	-304.022040	877.498425	1520.160555	-318.131177	837.131279	1480.394881	-495.098446	876.098146	1315.300741	-81.804976	792.871221	1268.025876	-98.968971	796.250189	1213.318553	-54.540258	807.643276	1148.744994	-29.465886	780.963114	1132.748344	-113.018918	829.764526	1409.355744	-566.101570	756.653584	1342.183660	-566.460461	769.347468	1312.886140	-636.856808	765.235671	1240.976324	-676.301973	721.739159	1218.806541	-599.196210	860.374556	1090.558255	-46.147799	1046.065842	1104.974445	-116.270976	1034.012975	1040.747169	-95.009137	818.644025	1165.223428	-642.893131	963.977067	1170.149586	-549.385322	959.866115	1108.718115	-580.579996	
